<svg height="500pt" preserveAspectRatio="xMidYMid meet" viewBox="0 0 1000 500" width="1000pt" xmlns="http://www.w3.org/2000/svg"><g transform="matrix(.1 0 0 -.1 0 500)"><path d="m1650 3074c-183-62-317-204-365-385-20-73-19-222 1-290 29-98 73-171 148-244 306-301 817-168 940 244 20 68 21 217 1 290-48 182-183 324-367 385-108 37-251 36-358 0zm302-209c65-23 141-93 175-163 25-51 28-68 28-157 0-96-1-103-36-165-60-110-162-170-289-170s-229 60-289 170c-35 62-36 69-36 165 0 89 3 106 28 157 76 154 249 221 419 163z"/><path d="m450 2544v-536l218 4c197 4 222 6 277 27 77 30 155 107 178 176 22 62 22 168 1 230-17 47-92 137-124 147-11 3-5 14 22 40 121 114 77 321-85 404-67 35-129 44-309 44h-178zm386 293c16-19 24-40 24-67s-8-48-24-67c-22-25-31-28-105-31l-81-4v102 102l81-4c74-3 83-6 105-31zm8-391c46-19 66-52 66-106 0-87-49-120-180-120h-80v120 120h80c46 0 95-6 114-14z"/><path d="m2560 2545v-535h100 100v215 215h45 44l163-215 163-214 123-1c67 0 122 3 122 7 0 3-79 112-176 240-96 129-177 240-180 248-3 7 3 16 15 20 35 11 100 94 116 148 35 118 10 213-80 304-89 89-139 103-376 103h-179zm382 296c29-26 33-36 33-79 0-80-46-112-162-112h-53v110 110h75c68 0 77-2 107-29z"/><path d="m3540 2545v-535h198c237 1 326 14 431 66 134 66 249 207 280 344 16 68 13 209-5 271-54 183-203 323-399 374-45 11-114 15-282 15h-223zm515 297c65-30 128-92 157-156 18-41 23-69 23-141 0-78-4-97-28-147-33-67-80-112-156-146-47-22-74-26-183-30l-128-5v328 327l133-4c111-3 140-7 182-26z"/><path d="m4630 2545v-535h370 370v105 105h-270-270v125 125h195 195v100 100h-195-195v100 100l263 2 262 3 3 103 3 102h-366-365z"/><path d="m5520 2545v-535h100 100v215 215h45 44l163-215 163-214 123-1c67 0 122 3 122 7 0 3-79 112-176 240-96 129-177 240-180 248-3 7 3 16 15 20 35 11 100 94 116 148 35 118 10 213-80 304-89 89-139 103-376 103h-179zm382 296c29-26 33-36 33-79 0-80-46-112-162-112h-53v110 110h75c68 0 77-2 107-29z"/><path d="m6500 2545v-535l308 2 307 3 3 103 3 102h-211-210v430 430h-100-100z"/><path d="m7270 2545v-535h100 100v535 535h-100-100z"/><path d="m7670 2545v-535h100 100l2 358 3 357 269-350c148-192 274-353 280-357s57-8 114-8h102v535 535h-105-105l-2-350-3-351-269 351-270 350h-108-108z"/><path d="m8840 2545v-535h370 370v105 105h-270-270v125 125h195 195v100 100h-195-195v100 100l263 2 262 3 3 103 3 102h-366-365z"/><path d="m440 1770v-110h4575 4575v110 110h-4575-4575z"/></g></svg>