<svg height="500pt" preserveAspectRatio="xMidYMid meet" viewBox="0 0 1000 500" width="1000pt" xmlns="http://www.w3.org/2000/svg"><g transform="matrix(.1 0 0 -.1 0 500)"><path d="m8155 3094c-108-22-138-30-189-56-78-39-166-124-205-197-43-82-61-160-61-273 0-264 153-459 410-524 49-12 94-15 190-12 139 5 214 27 309 88l51 32v179 179h-206-205l60-50 61-51v-180c0-211 8-206-116-77-188 197-323 479-326 683-2 131 31 191 110 202 99 13 228-94 366-305 44-67 81-121 81-119 1 1 26 91 55 201 42 159 50 200 39 206-7 5-47 20-89 34-110 36-262 54-335 40z"/><path d="m9174 3085c-94-20-172-63-239-130-106-106-155-229-155-390 0-162 44-271 154-381s219-154 382-154c148 0 259 43 354 139 101 102 150 229 150 388 0 220-103 390-292 482-120 59-230 73-354 46zm7-91c198-100 439-540 427-778-3-60-7-71-31-92-103-88-311 81-466 377-83 160-133 346-117 435 16 84 91 107 187 58z"/><path d="m4160 3066c0-3 25-19 55-36l55-31v-465-464h-60c-33 0-60-4-60-10s97-10 270-10 270 4 270 10-27 10-60 10h-60v463 462l55 33c30 18 55 35 55 38 0 2-117 4-260 4s-260-2-260-4z"/><path d="m4820 3035c30-19 59-36 64-38 4-1 3-184-3-407s-11-431-11-462v-58h-40c-22 0-40-4-40-10s65-10 175-10 175 4 175 10-35 10-85 10h-85l-1 28c0 15-13 203-28 417-15 215-27 391-25 393 1 2 116-131 255-295 504-593 477-563 509-563h30v474 475l55 31c30 17 55 33 55 36 0 2-73 4-162 4l-163-1 58-32c33-18 59-40 62-52 12-55 76-518 72-522-3-2-117 133-254 301l-248 305h-210l-210 1z"/><path d="m5910 3067c0-3 25-20 55-37l55-31v-465-464h-60c-37 0-60-4-60-11 0-8 87-10 308-6 250 3 319 8 372 22 191 51 321 164 370 323 78 249-12 498-214 597-131 64-158 68-508 73-175 2-318 1-318-1zm586-53c89-54 137-161 154-339 31-336-80-582-274-602l-56-6v493 492l64-4c49-3 75-11 112-34z"/><path d="m7080 3066c0-3 25-19 55-36l55-31v-465-464h-60c-33 0-60-4-60-10s97-10 270-10 270 4 270 10-27 10-60 10h-60v463 462l55 33c30 18 55 35 55 38 0 2-117 4-260 4s-260-2-260-4z"/><path d="m320 3037c0-2 215-218 477-480l477-477h340 339l-480 480-481 480h-336c-185 0-336-1-336-3z"/><path d="m1290 3036c0-2 214-218 476-480l475-476h339 339l-480 480-480 480h-335c-184 0-334-2-334-4z"/><path d="m2211 3035c2-2 218-218 478-480l475-475h338 339l-480 480-481 480h-336c-186 0-335-2-333-5z"/></g></svg>