<svg height="500pt" preserveAspectRatio="xMidYMid meet" viewBox="0 0 1000 500" width="1000pt" xmlns="http://www.w3.org/2000/svg"><g transform="matrix(.1 0 0 -.1 0 500)"><path d="m3553 3230c-56-12-110-41-161-86-23-22-249-327-502-679l-459-640 276-3c213-2 280 1 289 10 7 7 148 202 314 433s305 420 308 419c5-1 288-401 321-454 8-13-21-15-242-15h-252l-142-195-142-195 811-3c446-1 813 0 816 2 6 7-866 1253-912 1304-75 82-212 126-323 102z"/><path d="m1121 3013-152-198 316-3 315-2v-495-495h240 240v495 495h228l227 1 66 87c37 48 106 138 153 200l87 112h-784-784z"/><path d="m5122 3012-153-197 655-5c644-5 655-5 683-26 15-11 34-39 42-61 20-55 0-118-48-150l-34-23h-653-654v-365-365h235 235v169 170l448 3c423 4 451 5 527 26 304 83 458 289 424 564-28 226-215 394-494 443-71 12-180 15-574 14h-486z"/><path d="m7212 3012-153-197 655-5c644-5 655-5 683-26 15-11 34-39 42-61 20-55 0-118-48-150l-34-23h-653-654v-365-365h235 235v169 170l448 3c423 4 451 5 527 26 304 83 458 289 424 564-28 226-215 394-494 443-71 12-180 15-574 14h-486z"/></g></svg>