<svg height="500pt" preserveAspectRatio="xMidYMid meet" viewBox="0 0 1000 500" width="1000pt" xmlns="http://www.w3.org/2000/svg"><g transform="matrix(.1 0 0 -.1 0 500)"><path d="m2240 3505v-245h245 245v245 245h-245-245z"/><path d="m3110 3505v-245h245 245v245 245h-245-245z"/><path d="m740 2505v-965h315 315v320 320h335 335v245 245h-335-335v155 155h355 355v245 245h-670-670z"/><path d="m3840 2505v-965h306 305l-3 534c-2 294 0 532 3 530 4-2 136-242 295-534l288-530h328 328v965 965h-306-305l3-535c2-359 0-531-7-521-5 8-131 248-280 535l-270 521h-342-343z"/><path d="m5970 2505v-965h315 315v255 256l52 64c28 36 55 65 60 65 4 0 80-144 168-320l160-320h371c299 0 370 2 366 13-3 7-146 258-319 557-174 300-320 554-326 566-10 18 23 63 298 405l309 384-357 3c-196 1-362 0-368-2-7-3-101-134-210-293l-199-288-3 293-2 292h-315-315z"/><path d="m7880 2505v-965h700 700v250 250h-385-385v115 115h350 350v245 245h-350-350v110 110h370 370v245 245h-685-685z"/><path d="m2242 2518c4-447 6-521 21-573 81-282 301-425 657-425 357 0 582 148 656 431 15 55 18 137 21 572l5 507h-246-245l-3-482c-3-467-4-484-24-523-33-63-82-86-174-83-60 2-82 8-108 26-69 49-67 34-70 575l-3 487h-245-245z"/></g></svg>