<svg height="500pt" preserveAspectRatio="xMidYMid meet" viewBox="0 0 1000 500" width="1000pt" xmlns="http://www.w3.org/2000/svg"><g transform="matrix(.1 0 0 -.1 0 500)"><path d="m8784 3095c-222-48-365-185-339-324 29-157 178-227 578-270 197-22 298-41 346-66 98-50 110-167 24-246-67-63-175-91-353-91-200 0-358 48-496 152l-51 39-42-43c-22-23-41-44-41-47 0-10 113-85 175-117 239-119 583-135 793-35 68 32 146 103 173 156 46 89 33 201-31 268-78 82-228 125-534 153-323 31-411 69-411 181 0 48 4 58 34 89 71 73 225 112 411 103 143-7 251-38 346-102 73-49 65-50 131 7l32 27-70 47c-80 53-191 99-288 120-83 17-305 17-387-1z"/><path d="m510 2545v-535h60 60v535 535h-60-60z"/><path d="m990 2545v-535h60 60v457 458l458-458 457-457h53 52v535 535h-60-60v-440c0-242-2-440-5-440-2 0-201 198-441 440l-437 440h-68-69z"/><path d="m2383 3018c13-35 102-276 197-536l173-473 66 3 66 3 170 452c94 248 173 454 176 457s84-201 179-454l173-461 65 3 65 3 194 525c106 289 193 528 193 533 0 4-29 7-63 7h-64l-153-432c-84-238-157-444-162-458-8-20-11-22-18-10s-296 772-332 873c-10 27-12 28-75 25l-65-3-171-452c-95-249-174-453-177-453s-77 205-165 455l-160 455h-67-68z"/><path d="m4455 2623c-137-251-269-491-293-535l-43-78h68 68l78 145 79 145 365-2 365-3 77-140 76-140 69-3c53-2 67 0 63 10-2 7-133 247-290 533l-286 520-73 3-73 2zm475 67c78-146 145-268 147-272 2-5-131-8-297-8-250 0-301 2-298 14 7 32 292 546 299 539 3-5 71-127 149-273z"/><path d="m5650 2545v-535h65 65v205 205h258 257l175-203 176-202 78-3c43-2 76 1 74 6-1 4-79 95-173 201-93 105-171 196-173 200-2 5 14 12 34 16 209 39 328 207 280 394-30 116-114 196-243 232-61 17-107 19-470 19h-403zm801 415c125-24 189-84 197-186 9-106-47-188-150-219-42-12-114-15-390-15h-338v215 215h314c172 0 337-5 367-10z"/><path d="m7070 2545v-537l333 4c299 4 340 7 410 26 269 73 417 256 417 515 0 246-150 428-415 504-50 14-117 17-402 21l-343 3zm705 401c191-54 301-166 324-330 27-187-54-348-212-426-103-50-173-60-449-60h-248v421 421l263-5c206-3 275-8 322-21z"/></g></svg>