<svg height="2000pt" preserveAspectRatio="xMidYMid meet" viewBox="0 0 964 2000" width="964pt" xmlns="http://www.w3.org/2000/svg"><g transform="matrix(.1 0 0 -.1 0 2000)"><path d="m655 19891c61-60 2106-2054 4545-4432l4435-4324 3 806 2 806-162 161c-90 88-1763 1720-3718 3626l-3555 3466h-830-830z"/><path d="m3210 19926c134-131 6420-6086 6425-6086 3 0 5 596 5 1325v1324l-1852 1756-1851 1755h-1401-1401z"/><path d="m6940 19886c63-62 664-648 1335-1301s1253-1220 1293-1259l72-70v809 810l-578 562-577 563h-830-830z"/><path d="m0 18531v-1329l4777-4529c2627-2490 4796-4545 4820-4566l43-39v1329l-1 1328-4597 4357c-2528 2396-4697 4452-4819 4568l-223 211z"/><path d="m0 12465 1-810 3785-3690c2082-2029 3949-3850 4148-4045 337-331 1306-1276 1584-1544l122-119v811 810l-548 534c-1376 1343-9012 8785-9049 8821l-43 41z"/><path d="m0 9422v-1329l4266-4044 4267-4044 553-3 554-2v807 808l-4721 4475c-2597 2461-4766 4517-4820 4568l-99 94z"/><path d="m0 4235 1-1330 1532-1452 1532-1452 1405-1c1182 0 1402 2 1390 14-13 11-5721 5418-5822 5514l-38 36z"/><path d="m1 1164 1-809 182-178 183-177 828 2 828 3-984 960c-542 528-997 971-1012 984l-27 24z"/></g></svg>